/* XPM */
static const char * const test_crash_xpm[] = {
"16 16 219 2",
"  	c None",
". 	c #000000",
"+ 	c #070302",
"@ 	c #351A10",
"# 	c #3E2013",
"$ 	c #28170D",
"% 	c #31180E",
"& 	c #030201",
"* 	c #0E0804",
"= 	c #0F0906",
"- 	c #010000",
"; 	c #030101",
"> 	c #0F0704",
", 	c #512C1A",
"' 	c #632F1B",
") 	c #8E4C2D",
"! 	c #4E2314",
"~ 	c #0D0604",
"{ 	c #1F100A",
"] 	c #34190E",
"^ 	c #78361E",
"/ 	c #752E17",
"( 	c #843115",
"_ 	c #E46734",
": 	c #C4552B",
"< 	c #030405",
"[ 	c #314B56",
"} 	c #1D2C38",
"| 	c #538197",
"1 	c #577F8E",
"2 	c #1D0F0A",
"3 	c #341B11",
"4 	c #451D10",
"5 	c #D46134",
"6 	c #E96C30",
"7 	c #FCAB4F",
"8 	c #FFCE63",
"9 	c #FFBE5A",
"0 	c #030507",
"a 	c #5383AC",
"b 	c #89D0F0",
"c 	c #89CDFB",
"d 	c #7DBCE7",
"e 	c #81B7DE",
"f 	c #98BFCD",
"g 	c #CEDCE1",
"h 	c #7C4631",
"i 	c #ED7A3E",
"j 	c #FFC662",
"k 	c #FFFDCC",
"l 	c #FFFFE7",
"m 	c #FFFFE8",
"n 	c #0D131A",
"o 	c #60909D",
"p 	c #7AB8D8",
"q 	c #8ED4F6",
"r 	c #395668",
"s 	c #11151C",
"t 	c #3A4756",
"u 	c #687C8A",
"v 	c #ADB2B4",
"w 	c #8E5E4D",
"x 	c #DC8857",
"y 	c #FFFAC5",
"z 	c #FFFFE5",
"A 	c #FFFFCE",
"B 	c #FFF69B",
"C 	c #030506",
"D 	c #537E9E",
"E 	c #7FB9C5",
"F 	c #96DEFB",
"G 	c #557C90",
"H 	c #151515",
"I 	c #181717",
"J 	c #261E1B",
"K 	c #45332B",
"L 	c #765348",
"M 	c #885343",
"N 	c #E1834F",
"O 	c #FFD87B",
"P 	c #FFC565",
"Q 	c #FF9442",
"R 	c #010102",
"S 	c #141E2B",
"T 	c #45648D",
"U 	c #9DE0FA",
"V 	c #3C4D56",
"W 	c #161616",
"X 	c #242424",
"Y 	c #646363",
"Z 	c #615C5A",
"` 	c #483E39",
" .	c #847166",
"..	c #A18075",
"+.	c #E3937C",
"@.	c #EA7849",
"#.	c #E78050",
"$.	c #DD8157",
"%.	c #263745",
"&.	c #81BDEE",
"*.	c #91D7FB",
"=.	c #3C4952",
"-.	c #262626",
";.	c #383838",
">.	c #7D7B79",
",.	c #7F7773",
"'.	c #4C4745",
").	c #524C49",
"!.	c #88736A",
"~.	c #9B8487",
"{.	c #8A4E37",
"].	c #A46852",
"^.	c #9A6E5C",
"/.	c #213047",
"(.	c #6792BB",
"_.	c #90D6FB",
":.	c #8BD0FB",
"<.	c #587488",
"[.	c #3B3B3B",
"}.	c #414141",
"|.	c #4B4B4B",
"1.	c #515151",
"2.	c #575656",
"3.	c #86736A",
"4.	c #A59994",
"5.	c #747889",
"6.	c #281F1F",
"7.	c #3C2116",
"8.	c #2A1C16",
"9.	c #161E2B",
"0.	c #2E415B",
"a.	c #31485F",
"b.	c #5680AC",
"c.	c #77AFDC",
"d.	c #4D4E4F",
"e.	c #555555",
"f.	c #5D5D5D",
"g.	c #606060",
"h.	c #666362",
"i.	c #7A726F",
"j.	c #787777",
"k.	c #7383A0",
"l.	c #58616E",
"m.	c #221610",
"n.	c #201E1D",
"o.	c #060606",
"p.	c #030303",
"q.	c #0A0F15",
"r.	c #3B5676",
"s.	c #89CAF7",
"t.	c #6F98B4",
"u.	c #565757",
"v.	c #616161",
"w.	c #4C4D50",
"x.	c #262C34",
"y.	c #7892A8",
"z.	c #0E0D0C",
"A.	c #767574",
"B.	c #AFAFAF",
"C.	c #171717",
"D.	c #070707",
"E.	c #4D6E91",
"F.	c #88C6EF",
"G.	c #94DBFB",
"H.	c #92D9FB",
"I.	c #6A9CB7",
"J.	c #2F3D45",
"K.	c #1D1F22",
"L.	c #222C39",
"M.	c #527284",
"N.	c #A3D7DF",
"O.	c #C1E0E2",
"P.	c #696969",
"Q.	c #C4C4C4",
"R.	c #CECECE",
"S.	c #4D4D4D",
"T.	c #0E0E0E",
"U.	c #141B25",
"V.	c #2A3E58",
"W.	c #6999BB",
"X.	c #405E77",
"Y.	c #6291BA",
"Z.	c #8ED1F9",
"`.	c #93D6F6",
" +	c #95D7F9",
".+	c #9EE1FB",
"++	c #56757C",
"@+	c #626B72",
"#+	c #BFBFBF",
"$+	c #D9D9D9",
"%+	c #DEDEDE",
"&+	c #121212",
"*+	c #050505",
"=+	c #0B0B0B",
"-+	c #242425",
";+	c #4D5A70",
">+	c #679AD9",
",+	c #82C1F3",
"'+	c #6D9FBF",
")+	c #37506D",
"!+	c #75AACE",
"~+	c #8A9DA6",
"{+	c #E0E0E0",
"]+	c #E5E5E5",
"^+	c #EAEAEA",
"/+	c #EFEFEF",
"(+	c #212121",
"_+	c #0C0C0C",
":+	c #191B1F",
"<+	c #26303D",
"[+	c #2C3B4B",
"}+	c #2D373F",
"|+	c #727375",
"1+	c #9B9EA1",
"2+	c #E3E3E4",
"3+	c #F0F0F0",
"4+	c #F5F5F4",
"5+	c #F8F8F8",
"6+	c #FCFCFC",
". . . . . . . . . . . + @ # $ % ",
". . . . . . & * = - ; > , ' ) ! ",
". . . . . . - ~ { > ] ^ / ( _ : ",
". . . < [ } | 1 2 3 4 5 6 7 8 9 ",
". . 0 a b c d e f g h i j k l m ",
". n o p q r s t u v w x y z A B ",
"C D E F G H H I J K L M N O P Q ",
"R S T U V W X Y Z `  ...+.@.#.$.",
". %.&.*.=.-.;.>.,.'.).!.~.{.].^.",
"/.(._.:.<.[.}.|.1.2.3.4.5.6.7.8.",
"9.0.a.b.c.d.e.f.g.h.i.j.k.l.m.n.",
"o.p.q.r.s.t.u.v.v.g.w.x.y.z.A.B.",
"C.D.E.F.G.H.I.J.K.L.M.N.O.P.Q.R.",
"S.T.U.V.W.X.Y.Z.`. +.+++@+#+$+%+",
"&+*+*+=+-+;+>+,+'+)+!+~+{+]+^+/+",
"X W (+T._+:+<+[+}+|+1+2+3+4+5+6+"};
