/* XPM */
static const char * const test_fail_xpm[] = {
"16 16 128 2",
"  	c None",
". 	c #E7E7E7",
"+ 	c #EFEFEF",
"@ 	c #949494",
"# 	c #5A5A5A",
"$ 	c #292929",
"% 	c #080808",
"& 	c #212121",
"* 	c #4A4A4A",
"= 	c #D6D6D6",
"- 	c #636363",
"; 	c #423939",
"> 	c #9C8C8C",
", 	c #C6B5B5",
"' 	c #D6CECE",
") 	c #C6BDBD",
"! 	c #948C8C",
"~ 	c #6B6B6B",
"{ 	c #F7F7F7",
"] 	c #FFFFFF",
"^ 	c #523131",
"/ 	c #B59494",
"( 	c #DEC6C6",
"_ 	c #F7E7E7",
": 	c #EFDEDE",
"< 	c #DECECE",
"[ 	c #AD8C8C",
"} 	c #5A4242",
"| 	c #8C8C8C",
"1 	c #522121",
"2 	c #945252",
"3 	c #BD7373",
"4 	c #D69494",
"5 	c #DE9C9C",
"6 	c #D69C9C",
"7 	c #DE9494",
"8 	c #4A2121",
"9 	c #634A4A",
"0 	c #7B3131",
"a 	c #AD3939",
"b 	c #B53129",
"c 	c #BD4A42",
"d 	c #C65A4A",
"e 	c #C6524A",
"f 	c #BD5242",
"g 	c #B52921",
"h 	c #A53131",
"i 	c #843131",
"j 	c #521010",
"k 	c #A53939",
"l 	c #B52918",
"m 	c #C63931",
"n 	c #C64A42",
"o 	c #CE524A",
"p 	c #D65A4A",
"q 	c #CE4A42",
"r 	c #C64231",
"s 	c #5A1818",
"t 	c #CECECE",
"u 	c #6B0808",
"v 	c #B53131",
"w 	c #D65242",
"x 	c #D66352",
"y 	c #E76B63",
"z 	c #E77363",
"A 	c #DE6B63",
"B 	c #DE635A",
"C 	c #CE5242",
"D 	c #BD3939",
"E 	c #B5B5B5",
"F 	c #7B1818",
"G 	c #E76B5A",
"H 	c #EF736B",
"I 	c #F7847B",
"J 	c #F78473",
"K 	c #F77B73",
"L 	c #EF6B5A",
"M 	c #DE5A4A",
"N 	c #C63131",
"O 	c #7B1010",
"P 	c #ADADAD",
"Q 	c #732929",
"R 	c #C64229",
"S 	c #FF8C7B",
"T 	c #FF948C",
"U 	c #FF9C8C",
"V 	c #FF847B",
"W 	c #CE4239",
"X 	c #6B4A4A",
"Y 	c #C63129",
"Z 	c #E7736B",
"` 	c #FF9C94",
" .	c #FFB59C",
"..	c #FFA59C",
"+.	c #C63929",
"@.	c #734A4A",
"#.	c #DEDEDE",
"$.	c #7B2921",
"%.	c #E76352",
"&.	c #FFA594",
"*.	c #FFB5A5",
"=.	c #FFB5AD",
"-.	c #F7ADA5",
";.	c #FFAD9C",
">.	c #842921",
",.	c #6B5A5A",
"'.	c #8C3129",
").	c #F7736B",
"!.	c #F79C8C",
"~.	c #FFBDAD",
"{.	c #F7B5A5",
"].	c #9C9C9C",
"^.	c #C6C6C6",
"/.	c #848484",
"(.	c #6B3131",
"_.	c #9C4A42",
":.	c #C66352",
"<.	c #E7846B",
"[.	c #C66B5A",
"}.	c #9C4A39",
"|.	c #6B3939",
"1.	c #7B7B7B",
"2.	c #525252",
"3.	c #393939",
"4.	c #424242",
"5.	c #BDBDBD",
"6.	c #A5A5A5",
"7.	c #737373",
". + . . @ # $ % & * @ + . + + + ",
"+ + = - ; > , ' ) ! ; ~ = + + { ",
"] ] ~ ^ / ( _ _ : < [ } ~ ] ] ] ",
"+ | 1 2 3 4 5 6 5 7 3 2 8 | { + ",
"= 9 0 a b c d e f c g h i 9 = . ",
"= j k l m n o p o q r g h s t + ",
"t u v m w x y z A B C r D u = + ",
"E F r p G H I J I K L M N O E . ",
"P Q R G H S T U U V K G W Q P t ",
"E X Y Z V U `  ...U S H +.@.P #.",
"t @ $.%.T &.*.=.-.;.T L >.@ t + ",
"t @ ,.'.).!.*.~.{.&.z '.,.].^.. ",
"t E /.# (._.:.<.[.}.|.# 1.P t #.",
". t P | - 2.3.4.4.* - | P t #.. ",
"+ + #.5.6./.~ 1.7./.].5.= + + { ",
". #.. = ^.E 6.6.P E ^.= #.. #.#."};
