/* XPM */
static const char * const test_ignore_xpm[] = {
"16 16 137 2",
"  	c None",
". 	c #EFEFEF",
"+ 	c #E7E7E7",
"@ 	c #9C9494",
"# 	c #6B5A5A",
"$ 	c #392121",
"% 	c #290000",
"& 	c #422121",
"* 	c #5A4A4A",
"= 	c #9C9C9C",
"- 	c #F7F7F7",
"; 	c #D6D6D6",
"> 	c #846B6B",
", 	c #733939",
"' 	c #B58C8C",
") 	c #CEB5B5",
"! 	c #DECECE",
"~ 	c #DEBDBD",
"{ 	c #6B3939",
"] 	c #7B6B6B",
"^ 	c #DED6D6",
"/ 	c #FFFFFF",
"( 	c #8C6B6B",
"_ 	c #8C4242",
": 	c #C68C8C",
"< 	c #E7CECE",
"[ 	c #F7EFE7",
"} 	c #F7E7E7",
"| 	c #E7CEC6",
"1 	c #CE9494",
"2 	c #FFFFF7",
"3 	c #A59494",
"4 	c #842121",
"5 	c #BD6B52",
"6 	c #D69C73",
"7 	c #DEBD94",
"8 	c #E7C69C",
"9 	c #EFC69C",
"0 	c #EFCE9C",
"a 	c #E7BD94",
"b 	c #CE9473",
"c 	c #A58C8C",
"d 	c #8C4A4A",
"e 	c #AD4A31",
"f 	c #CE7331",
"g 	c #D68C21",
"h 	c #DE9429",
"i 	c #DE9C31",
"j 	c #E7A539",
"k 	c #D68C29",
"l 	c #CE7B39",
"m 	c #DEDEDE",
"n 	c #842118",
"o 	c #C67331",
"p 	c #DE8421",
"q 	c #E79418",
"r 	c #E79C29",
"s 	c #EFA531",
"t 	c #EFAD31",
"u 	c #EFA529",
"v 	c #E79410",
"w 	c #DE8C18",
"x 	c #CE7339",
"y 	c #841810",
"z 	c #CECECE",
"A 	c #9C2908",
"B 	c #D68431",
"C 	c #EF9C10",
"D 	c #F7A529",
"E 	c #F7B539",
"F 	c #FFBD4A",
"G 	c #FFC652",
"H 	c #F7BD4A",
"I 	c #F7B542",
"J 	c #EF9C18",
"K 	c #D68C31",
"L 	c #A53108",
"M 	c #C6C6C6",
"N 	c #B5B5B5",
"O 	c #944208",
"P 	c #E79431",
"Q 	c #F7AD31",
"R 	c #FFBD42",
"S 	c #FFCE52",
"T 	c #FFCE5A",
"U 	c #FFD663",
"V 	c #E79C31",
"W 	c #9C4210",
"X 	c #ADADAD",
"Y 	c #945229",
"Z 	c #EF9C31",
"` 	c #F7BD42",
" .	c #F7D65A",
"..	c #FFE773",
"+.	c #FFEF73",
"@.	c #FFDE63",
"#.	c #EF9421",
"$.	c #8C6B4A",
"%.	c #E79421",
"&.	c #F7C652",
"*.	c #FFF784",
"=.	c #8C6B52",
"-.	c #BDBDBD",
";.	c #8C8C8C",
">.	c #8C6321",
",.	c #EFBD42",
"'.	c #FFDE6B",
").	c #FFFF8C",
"!.	c #F7F77B",
"~.	c #F7C642",
"{.	c #946321",
"].	c #949494",
"^.	c #6B6352",
"/.	c #947321",
"(.	c #E7CE42",
"_.	c #F7EF73",
":.	c #FFFF94",
"<.	c #FFFF7B",
"[.	c #F7DE4A",
"}.	c #8C6B18",
"|.	c #6B635A",
"1.	c #5A5A5A",
"2.	c #6B6329",
"3.	c #948C29",
"4.	c #C6C639",
"5.	c #E7E74A",
"6.	c #CECE39",
"7.	c #949429",
"8.	c #525252",
"9.	c #848484",
"0.	c #636363",
"a.	c #4A4A4A",
"b.	c #424242",
"c.	c #393939",
"d.	c #737373",
"e.	c #6B6B6B",
"f.	c #A5A5A5",
". + . + @ # $ % & * = + + . + . ",
". - ; > , ' ) ! ~ ' { ] ^ . . - ",
"/ / ( _ : < [ } [ | 1 _ ( 2 / / ",
"- 3 4 5 6 7 8 9 0 a b 5 4 c . . ",
"; d e f g h i j i h k l e d m + ",
"; n o p q r s s t u v w x y z . ",
"; A B C D E F G H I D J K L M - ",
"N O P Q R S T U U S R Q V W N + ",
"X Y Z ` S  ...+...@.T ` #.Y N ; ",
"N $.%.&.U ..*.*.*.+.@.&.%.=.-.; ",
"M ;.>.,.'.*.).).).!...~.{.].z . ",
"M ].^./.(._.).:.:.<.[.}.|.= z . ",
"z X ;.1.2.3.4.5.6.7.2.8.9.X z m ",
"m z X 9.0.a.a.b.c.a.0.;.X z + + ",
". - ; -.= 9.d.e.d.;.f.-.; . . . ",
"m m m ; M -.X X X X -.; m + m + "};
