/* XPM */
static const char * const test_pass_unexpected_xpm[] = {
"16 16 113 2",
"  	c None",
". 	c #E7E7E7",
"+ 	c #EFEFEF",
"@ 	c #9C9C9C",
"# 	c #4A4A4A",
"$ 	c #212121",
"% 	c #000000",
"& 	c #5A5A5A",
"* 	c #949494",
"= 	c #CECECE",
"- 	c #636363",
"; 	c #393939",
"> 	c #8C8C8C",
", 	c #BDBDBD",
"' 	c #D6D6D6",
") 	c #F7F7F7",
"! 	c #FFFFFF",
"~ 	c #737373",
"{ 	c #949C94",
"] 	c #C6D6C6",
"^ 	c #DEE7DE",
"/ 	c #E7EFE7",
"( 	c #424242",
"_ 	c #6B6B6B",
": 	c #FFFFF7",
"< 	c #212921",
"[ 	c #527B52",
"} 	c #73A573",
"| 	c #9CC694",
"1 	c #ADCE9C",
"2 	c #315A31",
"3 	c #318C29",
"4 	c #529C29",
"5 	c #6BAD31",
"6 	c #6BAD39",
"7 	c #73B539",
"8 	c #6BA531",
"9 	c #5A9C31",
"0 	c #398C31",
"a 	c #183118",
"b 	c #318431",
"c 	c #4A9C21",
"d 	c #52A518",
"e 	c #6BAD29",
"f 	c #73BD39",
"g 	c #6BB529",
"h 	c #5AAD18",
"i 	c #F7F7EF",
"j 	c #C6C6C6",
"k 	c #084208",
"l 	c #4A9431",
"m 	c #63AD21",
"n 	c #84C642",
"o 	c #8CCE4A",
"p 	c #8CCE52",
"q 	c #7BC642",
"r 	c #73B531",
"s 	c #105A10",
"t 	c #63AD31",
"u 	c #94D65A",
"v 	c #A5DE63",
"w 	c #A5E76B",
"x 	c #73BD29",
"y 	c #5AAD31",
"z 	c #105210",
"A 	c #DEDEDE",
"B 	c #ADADAD",
"C 	c #732929",
"D 	c #C64229",
"E 	c #E76B5A",
"F 	c #EF736B",
"G 	c #FF8C7B",
"H 	c #FF948C",
"I 	c #FF9C8C",
"J 	c #FF847B",
"K 	c #F77B73",
"L 	c #CE4239",
"M 	c #B5B5B5",
"N 	c #6B4A4A",
"O 	c #C63129",
"P 	c #E7736B",
"Q 	c #FF9C94",
"R 	c #FFB59C",
"S 	c #FFA59C",
"T 	c #C63929",
"U 	c #734A4A",
"V 	c #7B2921",
"W 	c #E76352",
"X 	c #FFA594",
"Y 	c #FFB5A5",
"Z 	c #FFB5AD",
"` 	c #F7ADA5",
" .	c #FFAD9C",
"..	c #EF6B5A",
"+.	c #842921",
"@.	c #6B5A5A",
"#.	c #8C3129",
"$.	c #F7736B",
"%.	c #F79C8C",
"&.	c #FFBDAD",
"*.	c #F7B5A5",
"=.	c #E77363",
"-.	c #848484",
";.	c #6B3131",
">.	c #9C4A42",
",.	c #C66352",
"'.	c #E7846B",
").	c #C66B5A",
"!.	c #9C4A39",
"~.	c #6B3939",
"{.	c #7B7B7B",
"].	c #525252",
"^.	c #A5A5A5",
". + + + @ # $ % $ & * . + . . + ",
"+ + = - ; > , = , > ; - ' + ) + ",
"! ! ~ ; { ] ^ / / ] { ( _ ! ! : ",
"+ > < [ } | 1 1 1 | } [ < * + + ",
"' # 2 3 4 5 6 7 5 8 9 0 2 # ' . ",
"' a b c d e f 7 f g h c b a = i ",
"j k l m g n o p p q r m l k = ) ",
", s t f o u v w w u o x y z , A ",
"B C D E F G H I I J K E L C B = ",
"M N O P J I Q R S I G F T U B A ",
"= * V W H X Y Z `  .H ..+.* = + ",
"= * @.#.$.%.Y &.*.X =.#.@.@ j . ",
"= M -.& ;.>.,.'.).!.~.& {.B = A ",
". = B > - ].; ( ( # - > B = A . ",
"+ + A , ^.-._ {.~ -.@ , ' + + ) ",
". A . ' j M ^.^.B M j ' A . A A "};
