/* XPM */
static const char * const test_pass_xpm[] = {
"16 16 103 2",
"  	c None",
". 	c #E7E7E7",
"+ 	c #EFEFEF",
"@ 	c #9C9C9C",
"# 	c #4A4A4A",
"$ 	c #212121",
"% 	c #000000",
"& 	c #5A5A5A",
"* 	c #949494",
"= 	c #CECECE",
"- 	c #636363",
"; 	c #393939",
"> 	c #8C8C8C",
", 	c #BDBDBD",
"' 	c #D6D6D6",
") 	c #F7F7F7",
"! 	c #FFFFFF",
"~ 	c #737373",
"{ 	c #949C94",
"] 	c #C6D6C6",
"^ 	c #DEE7DE",
"/ 	c #E7EFE7",
"( 	c #424242",
"_ 	c #6B6B6B",
": 	c #FFFFF7",
"< 	c #212921",
"[ 	c #527B52",
"} 	c #73A573",
"| 	c #9CC694",
"1 	c #ADCE9C",
"2 	c #315A31",
"3 	c #318C29",
"4 	c #529C29",
"5 	c #6BAD31",
"6 	c #6BAD39",
"7 	c #73B539",
"8 	c #6BA531",
"9 	c #5A9C31",
"0 	c #398C31",
"a 	c #183118",
"b 	c #318431",
"c 	c #4A9C21",
"d 	c #52A518",
"e 	c #6BAD29",
"f 	c #73BD39",
"g 	c #6BB529",
"h 	c #5AAD18",
"i 	c #F7F7EF",
"j 	c #C6C6C6",
"k 	c #084208",
"l 	c #4A9431",
"m 	c #63AD21",
"n 	c #84C642",
"o 	c #8CCE4A",
"p 	c #8CCE52",
"q 	c #7BC642",
"r 	c #73B531",
"s 	c #105A10",
"t 	c #63AD31",
"u 	c #94D65A",
"v 	c #A5DE63",
"w 	c #A5E76B",
"x 	c #73BD29",
"y 	c #5AAD31",
"z 	c #105210",
"A 	c #DEDEDE",
"B 	c #ADADAD",
"C 	c #295A29",
"D 	c #63AD29",
"E 	c #84C64A",
"F 	c #9CDE5A",
"G 	c #B5F773",
"H 	c #B5F77B",
"I 	c #ADEF73",
"J 	c #94DE5A",
"K 	c #B5B5B5",
"L 	c #4A634A",
"M 	c #4AA521",
"N 	c #C6FF84",
"O 	c #CEFF8C",
"P 	c #BDFF7B",
"Q 	c #52A521",
"R 	c #526B52",
"S 	c #396B21",
"T 	c #84CE42",
"U 	c #C6FF8C",
"V 	c #D6FF94",
"W 	c #CEFF94",
"X 	c #5A635A",
"Y 	c #4A7B21",
"Z 	c #94DE4A",
"` 	c #BDF77B",
" .	c #D6FF9C",
"..	c #9CE752",
"+.	c #526352",
"@.	c #848484",
"#.	c #426329",
"$.	c #639429",
"%.	c #8CCE42",
"&.	c #ADE752",
"*.	c #6B9C31",
"=.	c #A5A5A5",
"-.	c #525252",
". + + + @ # $ % $ & * . + . . + ",
"+ + = - ; > , = , > ; - ' + ) + ",
"! ! ~ ; { ] ^ / / ] { ( _ ! ! : ",
"+ > < [ } | 1 1 1 | } [ < * + + ",
"' # 2 3 4 5 6 7 5 8 9 0 2 # ' . ",
"' a b c d e f 7 f g h c b a = i ",
"j k l m g n o p p q r m l k = ) ",
", s t f o u v w w u o x y z , A ",
"B C D E F v G H I w J o t C B A ",
"K L M u w H N O N P w J Q R , A ",
"= * S T I U O V W N G T S > = . ",
"j @ X Y Z ` V  . .` ..Y +.* = + ",
"= B @.& #.$.%.&.n *.#.& > B = A ",
". = =.@.- # # ( ( -.- @.B = . . ",
"+ + A j =.@.~ ~ ~ @.* j ' + + + ",
"A . A = , , =.B B K , ' A . A . "};
